<?xml version="1.0" encoding="UTF-8" standalone="no"?>
<!DOCTYPE svg PUBLIC "-//W3C//DTD SVG 1.1//EN"
 "http://www.w3.org/Graphics/SVG/1.1/DTD/svg11.dtd">
<!-- Generated by graphviz version 2.43.0 (0)
 -->
<!-- Title: G Pages: 1 -->
<svg width="1310pt" height="823pt"
 viewBox="0.00 0.00 1310.05 822.98" xmlns="http://www.w3.org/2000/svg" xmlns:xlink="http://www.w3.org/1999/xlink">
<g id="graph0" class="graph" transform="scale(1 1) rotate(0) translate(4 818.98)">
<title>G</title><style>.edge>path:hover{stroke-width:8}</style>
<polygon fill="white" stroke="transparent" points="-4,4 -4,-818.98 1306.05,-818.98 1306.05,4 -4,4"/>
<!-- cryptography -->
<g id="node1" class="node">
<title>cryptography</title><style>.edge>path:hover{stroke-width:8}</style>
<ellipse fill="#c04040" stroke="black" cx="355.55" cy="-796.98" rx="47.86" ry="18"/>
<text text-anchor="middle" x="355.55" y="-794.48" font-family="Helvetica,sans-Serif" font-size="10.00" fill="#ffffff">cryptography</text>
</g>
<!-- flask_cli -->
<g id="node6" class="node">
<title>flask_cli</title><style>.edge>path:hover{stroke-width:8}</style>
<polygon fill="blue" stroke="black" points="382.55,-705.98 328.55,-705.98 328.55,-669.98 382.55,-669.98 382.55,-705.98"/>
<text text-anchor="middle" x="355.55" y="-685.48" font-family="Helvetica,sans-Serif" font-size="10.00" fill="white">flask.cli</text>
</g>
<!-- cryptography&#45;&gt;flask_cli -->
<g id="edge1" class="edge">
<title>cryptography&#45;&gt;flask_cli</title><style>.edge>path:hover{stroke-width:8}</style>
<path fill="none" stroke="black" d="M355.55,-778.79C355.55,-761.94 355.55,-736 355.55,-716.32"/>
<polygon fill="#c04040" stroke="black" points="359.05,-716.13 355.55,-706.13 352.05,-716.13 359.05,-716.13"/>
</g>
<!-- flask -->
<g id="node2" class="node">
<title>flask</title><style>.edge>path:hover{stroke-width:8}</style>
<polygon fill="blue" stroke="black" points="479.55,-36 425.55,-36 425.55,0 479.55,0 479.55,-36"/>
<text text-anchor="middle" x="452.55" y="-15.5" font-family="Helvetica,sans-Serif" font-size="10.00" fill="white">flask</text>
</g>
<!-- flask___main__ -->
<g id="node3" class="node">
<title>flask___main__</title><style>.edge>path:hover{stroke-width:8}</style>
<ellipse fill="#4cb34c" stroke="black" cx="551.55" cy="-615.98" rx="52.28" ry="18"/>
<text text-anchor="middle" x="551.55" y="-613.48" font-family="Helvetica,sans-Serif" font-size="10.00" fill="#000000">flask.__main__</text>
</g>
<!-- flask_app -->
<g id="node4" class="node">
<title>flask_app</title><style>.edge>path:hover{stroke-width:8}</style>
<polygon fill="blue" stroke="black" points="481.05,-633.98 420.05,-633.98 420.05,-597.98 481.05,-597.98 481.05,-633.98"/>
<text text-anchor="middle" x="450.55" y="-613.48" font-family="Helvetica,sans-Serif" font-size="10.00" fill="white">flask.app</text>
</g>
<!-- flask_app&#45;&gt;flask -->
<g id="edge2" class="edge">
<title>flask_app&#45;&gt;flask</title><style>.edge>path:hover{stroke-width:8}</style>
<path fill="none" stroke="black" d="M481.46,-601.56C484.52,-600.32 487.59,-599.1 490.55,-597.98 616.87,-550.17 697.26,-588.31 767.55,-472.98"/>
</g>
<!-- flask_ctx -->
<g id="node8" class="node">
<title>flask_ctx</title><style>.edge>path:hover{stroke-width:8}</style>
<polygon fill="blue" stroke="black" points="589.55,-561.98 531.55,-561.98 531.55,-525.98 589.55,-525.98 589.55,-561.98"/>
<text text-anchor="middle" x="560.55" y="-541.48" font-family="Helvetica,sans-Serif" font-size="10.00" fill="white">flask.ctx</text>
</g>
<!-- flask_app&#45;&gt;flask_ctx -->
<g id="edge4" class="edge">
<title>flask_app&#45;&gt;flask_ctx</title><style>.edge>path:hover{stroke-width:8}</style>
<path fill="none" stroke="black" d="M486.21,-592.29C498.58,-584.42 512.45,-575.59 524.83,-567.71"/>
<polygon fill="blue" stroke="black" points="484.02,-589.54 477.46,-597.86 487.78,-595.44 484.02,-589.54"/>
<polygon fill="blue" stroke="black" points="526.98,-570.49 533.54,-562.17 523.23,-564.59 526.98,-570.49"/>
</g>
<!-- flask_globals -->
<g id="node10" class="node">
<title>flask_globals</title><style>.edge>path:hover{stroke-width:8}</style>
<polygon fill="blue" stroke="black" points="489.55,-489.98 411.55,-489.98 411.55,-453.98 489.55,-453.98 489.55,-489.98"/>
<text text-anchor="middle" x="450.55" y="-469.48" font-family="Helvetica,sans-Serif" font-size="10.00" fill="white">flask.globals</text>
</g>
<!-- flask_app&#45;&gt;flask_globals -->
<g id="edge5" class="edge">
<title>flask_app&#45;&gt;flask_globals</title><style>.edge>path:hover{stroke-width:8}</style>
<path fill="none" stroke="black" d="M450.55,-587.66C450.55,-562.58 450.55,-525.61 450.55,-500.48"/>
<polygon fill="blue" stroke="black" points="447.05,-587.85 450.55,-597.85 454.05,-587.85 447.05,-587.85"/>
<polygon fill="blue" stroke="black" points="454.05,-500.17 450.55,-490.17 447.05,-500.17 454.05,-500.17"/>
</g>
<!-- flask_sessions -->
<g id="node16" class="node">
<title>flask_sessions</title><style>.edge>path:hover{stroke-width:8}</style>
<polygon fill="blue" stroke="black" points="1019.05,-252 934.05,-252 934.05,-216 1019.05,-216 1019.05,-252"/>
<text text-anchor="middle" x="976.55" y="-231.5" font-family="Helvetica,sans-Serif" font-size="10.00" fill="white">flask.sessions</text>
</g>
<!-- flask_app&#45;&gt;flask_sessions -->
<g id="edge6" class="edge">
<title>flask_app&#45;&gt;flask_sessions</title><style>.edge>path:hover{stroke-width:8}</style>
<path fill="none" stroke="black" d="M491.13,-598.5C641.18,-564.95 1083.55,-604.63 1083.55,-472.98 1083.55,-472.98 1083.55,-472.98 1083.55,-387.99 1083.55,-334.21 1038.6,-285.87 1006.96,-258.51"/>
<polygon fill="blue" stroke="black" points="490.13,-595.14 481.26,-600.93 491.81,-601.94 490.13,-595.14"/>
<polygon fill="blue" stroke="black" points="1009.15,-255.78 999.25,-252.02 1004.65,-261.14 1009.15,-255.78"/>
</g>
<!-- flask_templating -->
<g id="node18" class="node">
<title>flask_templating</title><style>.edge>path:hover{stroke-width:8}</style>
<polygon fill="blue" stroke="black" points="452.55,-108 382.55,-108 382.55,-72 452.55,-72 452.55,-108"/>
<text text-anchor="middle" x="417.55" y="-93" font-family="Helvetica,sans-Serif" font-size="10.00" fill="white">flask.</text>
<text text-anchor="middle" x="417.55" y="-82" font-family="Helvetica,sans-Serif" font-size="10.00" fill="white">templating</text>
</g>
<!-- flask_app&#45;&gt;flask_templating -->
<g id="edge7" class="edge">
<title>flask_app&#45;&gt;flask_templating</title><style>.edge>path:hover{stroke-width:8}</style>
<path fill="none" stroke="black" d="M417.25,-591.74C405.51,-582.95 392.51,-572.51 381.55,-561.98 321.49,-504.26 297.45,-493.16 261.55,-417.98 229.14,-350.11 235.92,-326.85 228.55,-252 226.99,-236.08 221.66,-230.44 228.55,-216 250.47,-170.08 275.1,-172.04 317.55,-144 335.14,-132.38 355.56,-121.19 373.33,-112.11"/>
<polygon fill="blue" stroke="black" points="415.41,-594.73 425.54,-597.83 419.55,-589.09 415.41,-594.73"/>
<polygon fill="blue" stroke="black" points="375.01,-115.19 382.36,-107.56 371.86,-108.94 375.01,-115.19"/>
</g>
<!-- flask_testing -->
<g id="node19" class="node">
<title>flask_testing</title><style>.edge>path:hover{stroke-width:8}</style>
<polygon fill="blue" stroke="black" points="1302.05,-180 1225.05,-180 1225.05,-144 1302.05,-144 1302.05,-180"/>
<text text-anchor="middle" x="1263.55" y="-159.5" font-family="Helvetica,sans-Serif" font-size="10.00" fill="white">flask.testing</text>
</g>
<!-- flask_app&#45;&gt;flask_testing -->
<g id="edge8" class="edge">
<title>flask_app&#45;&gt;flask_testing</title><style>.edge>path:hover{stroke-width:8}</style>
<path fill="none" stroke="black" d="M490.99,-598.43C715.58,-546.15 783.91,-607.14 1005.55,-561.98 1124.41,-537.77 1263.55,-594.28 1263.55,-472.98 1263.55,-472.98 1263.55,-472.98 1263.55,-305 1263.55,-265 1263.55,-218.65 1263.55,-190.08"/>
<polygon fill="blue" stroke="black" points="490.14,-595.04 481.22,-600.76 491.76,-601.85 490.14,-595.04"/>
<polygon fill="blue" stroke="black" points="1267.05,-190.05 1263.55,-180.05 1260.05,-190.05 1267.05,-190.05"/>
</g>
<!-- flask_blueprints -->
<g id="node5" class="node">
<title>flask_blueprints</title><style>.edge>path:hover{stroke-width:8}</style>
<polygon fill="blue" stroke="black" points="302.05,-252 237.05,-252 237.05,-216 302.05,-216 302.05,-252"/>
<text text-anchor="middle" x="269.55" y="-237" font-family="Helvetica,sans-Serif" font-size="10.00" fill="white">flask.</text>
<text text-anchor="middle" x="269.55" y="-226" font-family="Helvetica,sans-Serif" font-size="10.00" fill="white">blueprints</text>
</g>
<!-- flask_blueprints&#45;&gt;flask -->
<g id="edge9" class="edge">
<title>flask_blueprints&#45;&gt;flask</title><style>.edge>path:hover{stroke-width:8}</style>
<path fill="none" stroke="black" d="M284.67,-215.85C302.74,-196.24 334.67,-164.23 367.55,-144 417.21,-113.45 487.88,-149.3 487.55,-91"/>
<path fill="none" stroke="black" d="M487.55,-89C487.55,-73.26 480.38,-57.42 472.53,-44.81"/>
<polygon fill="blue" stroke="black" points="475.26,-42.6 466.79,-36.24 469.45,-46.49 475.26,-42.6"/>
</g>
<!-- flask_debughelpers -->
<g id="node9" class="node">
<title>flask_debughelpers</title><style>.edge>path:hover{stroke-width:8}</style>
<polygon fill="blue" stroke="black" points="459.05,-180 376.05,-180 376.05,-144 459.05,-144 459.05,-180"/>
<text text-anchor="middle" x="417.55" y="-165" font-family="Helvetica,sans-Serif" font-size="10.00" fill="white">flask.</text>
<text text-anchor="middle" x="417.55" y="-154" font-family="Helvetica,sans-Serif" font-size="10.00" fill="white">debughelpers</text>
</g>
<!-- flask_blueprints&#45;&gt;flask_debughelpers -->
<g id="edge10" class="edge">
<title>flask_blueprints&#45;&gt;flask_debughelpers</title><style>.edge>path:hover{stroke-width:8}</style>
<path fill="none" stroke="black" d="M302.4,-217.46C322.98,-207.73 349.79,-195.05 372.37,-184.37"/>
<polygon fill="blue" stroke="black" points="373.89,-187.53 381.43,-180.09 370.89,-181.2 373.89,-187.53"/>
</g>
<!-- flask_cli&#45;&gt;flask___main__ -->
<g id="edge11" class="edge">
<title>flask_cli&#45;&gt;flask___main__</title><style>.edge>path:hover{stroke-width:8}</style>
<path fill="none" stroke="black" d="M382.81,-677.25C414.86,-665.8 468.55,-646.63 506.75,-632.98"/>
<polygon fill="blue" stroke="black" points="508.36,-636.13 516.6,-629.47 506,-629.53 508.36,-636.13"/>
</g>
<!-- flask_cli&#45;&gt;flask_app -->
<g id="edge12" class="edge">
<title>flask_cli&#45;&gt;flask_app</title><style>.edge>path:hover{stroke-width:8}</style>
<path fill="none" stroke="black" d="M387.33,-663.57C397.56,-656.03 408.88,-647.69 419.08,-640.17"/>
<polygon fill="blue" stroke="black" points="385.01,-660.93 379.04,-669.68 389.16,-666.57 385.01,-660.93"/>
<polygon fill="blue" stroke="black" points="421.37,-642.84 427.34,-634.09 417.21,-637.2 421.37,-642.84"/>
</g>
<!-- flask_cli&#45;&gt;flask_blueprints -->
<g id="edge13" class="edge">
<title>flask_cli&#45;&gt;flask_blueprints</title><style>.edge>path:hover{stroke-width:8}</style>
<path fill="none" stroke="black" d="M345.87,-669.72C317.05,-616.29 235.47,-448.69 261.55,-307"/>
<path fill="none" stroke="black" d="M261.55,-305C261.11,-290.86 262.7,-275.22 264.58,-262.31"/>
<polygon fill="blue" stroke="black" points="268.07,-262.63 266.18,-252.2 261.16,-261.53 268.07,-262.63"/>
</g>
<!-- flask_cli&#45;&gt;flask_testing -->
<g id="edge14" class="edge">
<title>flask_cli&#45;&gt;flask_testing</title><style>.edge>path:hover{stroke-width:8}</style>
<path fill="none" stroke="black" d="M382.85,-684.36C537.95,-669.3 1301.55,-592.73 1301.55,-544.98 1301.55,-544.98 1301.55,-544.98 1301.55,-305 1301.55,-263.63 1286.32,-217.72 1275.14,-189.61"/>
<polygon fill="blue" stroke="black" points="1278.27,-188.02 1271.24,-180.09 1271.8,-190.67 1278.27,-188.02"/>
</g>
<!-- flask_config -->
<g id="node7" class="node">
<title>flask_config</title><style>.edge>path:hover{stroke-width:8}</style>
<ellipse fill="#40c040" stroke="black" cx="839.55" cy="-90" rx="42.27" ry="18"/>
<text text-anchor="middle" x="839.55" y="-87.5" font-family="Helvetica,sans-Serif" font-size="10.00" fill="#000000">flask.config</text>
</g>
<!-- flask_config&#45;&gt;flask -->
<g id="edge15" class="edge">
<title>flask_config&#45;&gt;flask</title><style>.edge>path:hover{stroke-width:8}</style>
<path fill="none" stroke="black" d="M801.39,-82.1C727.05,-68.65 563.69,-39.1 489.96,-25.77"/>
<polygon fill="#40c040" stroke="black" points="490.22,-22.26 479.76,-23.92 488.97,-29.14 490.22,-22.26"/>
</g>
<!-- flask_ctx&#45;&gt;flask -->
<g id="edge16" class="edge">
<title>flask_ctx&#45;&gt;flask</title><style>.edge>path:hover{stroke-width:8}</style>
<path fill="none" stroke="black" d="M589.73,-538.1C642.68,-528.5 750.69,-505.26 767.55,-472.98"/>
<path fill="none" stroke="black" d="M767.55,-470.98C805.62,-398.12 772.75,-363.64 740.55,-288 728.89,-260.6 714.99,-260.47 699.55,-235"/>
</g>
<!-- flask_ctx&#45;&gt;flask_globals -->
<g id="edge18" class="edge">
<title>flask_ctx&#45;&gt;flask_globals</title><style>.edge>path:hover{stroke-width:8}</style>
<path fill="none" stroke="black" d="M524.9,-520.29C512.53,-512.42 498.65,-503.59 486.27,-495.71"/>
<polygon fill="blue" stroke="black" points="523.33,-523.44 533.64,-525.86 527.09,-517.54 523.33,-523.44"/>
<polygon fill="blue" stroke="black" points="487.88,-492.59 477.57,-490.17 484.12,-498.49 487.88,-492.59"/>
</g>
<!-- flask_debughelpers&#45;&gt;flask_app -->
<g id="edge19" class="edge">
<title>flask_debughelpers&#45;&gt;flask_app</title><style>.edge>path:hover{stroke-width:8}</style>
<path fill="none" stroke="black" d="M394.45,-180.23C383.15,-189.7 370.17,-202.29 361.55,-216 313.39,-292.63 311.92,-330.61 335.55,-417.98 353.94,-485.93 402.23,-554.5 430.04,-590.06"/>
<polygon fill="blue" stroke="black" points="427.35,-592.3 436.31,-597.96 432.83,-587.95 427.35,-592.3"/>
</g>
<!-- flask_debughelpers&#45;&gt;flask_templating -->
<g id="edge20" class="edge">
<title>flask_debughelpers&#45;&gt;flask_templating</title><style>.edge>path:hover{stroke-width:8}</style>
<path fill="none" stroke="black" d="M417.55,-143.7C417.55,-135.98 417.55,-126.71 417.55,-118.11"/>
<polygon fill="blue" stroke="black" points="421.05,-118.1 417.55,-108.1 414.05,-118.1 421.05,-118.1"/>
</g>
<!-- flask_wrappers -->
<g id="node22" class="node">
<title>flask_wrappers</title><style>.edge>path:hover{stroke-width:8}</style>
<polygon fill="blue" stroke="black" points="603.55,-406.99 515.55,-406.99 515.55,-370.99 603.55,-370.99 603.55,-406.99"/>
<text text-anchor="middle" x="559.55" y="-386.49" font-family="Helvetica,sans-Serif" font-size="10.00" fill="white">flask.wrappers</text>
</g>
<!-- flask_globals&#45;&gt;flask -->
<g id="edge22" class="edge">
<title>flask_globals&#45;&gt;flask</title><style>.edge>path:hover{stroke-width:8}</style>
<path fill="none" stroke="black" d="M487.55,-161C478.5,-131.23 489.78,-122.03 487.55,-91"/>
</g>
<!-- flask_globals&#45;&gt;flask_blueprints -->
<g id="edge24" class="edge">
<title>flask_globals&#45;&gt;flask_blueprints</title><style>.edge>path:hover{stroke-width:8}</style>
<path fill="none" stroke="black" d="M411.33,-461.91C384.16,-454.01 348.52,-440.25 323.55,-417.98 281.39,-380.37 246.48,-361.45 261.55,-307"/>
</g>
<!-- flask_globals&#45;&gt;flask_cli -->
<g id="edge25" class="edge">
<title>flask_globals&#45;&gt;flask_cli</title><style>.edge>path:hover{stroke-width:8}</style>
<path fill="none" stroke="black" d="M442.9,-490.22C426.33,-527.54 387.03,-616.08 367.29,-660.54"/>
<polygon fill="blue" stroke="black" points="364.03,-659.27 363.17,-669.83 370.42,-662.11 364.03,-659.27"/>
</g>
<!-- flask_globals&#45;&gt;flask_debughelpers -->
<g id="edge27" class="edge">
<title>flask_globals&#45;&gt;flask_debughelpers</title><style>.edge>path:hover{stroke-width:8}</style>
<path fill="none" stroke="black" d="M411.18,-459.44C391.05,-451.31 368.37,-438.2 356.55,-417.98 312.44,-342.48 368.89,-236.69 399.81,-188.6"/>
<polygon fill="blue" stroke="black" points="402.87,-190.33 405.44,-180.05 397.02,-186.48 402.87,-190.33"/>
</g>
<!-- flask_helpers -->
<g id="node11" class="node">
<title>flask_helpers</title><style>.edge>path:hover{stroke-width:8}</style>
<polygon fill="blue" stroke="black" points="111.05,-324 32.05,-324 32.05,-288 111.05,-288 111.05,-324"/>
<text text-anchor="middle" x="71.55" y="-303.5" font-family="Helvetica,sans-Serif" font-size="10.00" fill="white">flask.helpers</text>
</g>
<!-- flask_globals&#45;&gt;flask_helpers -->
<g id="edge28" class="edge">
<title>flask_globals&#45;&gt;flask_helpers</title><style>.edge>path:hover{stroke-width:8}</style>
<path fill="none" stroke="black" d="M411.21,-464.43C369.43,-456.62 302.03,-441.59 247.55,-417.98 192.86,-394.28 135.55,-355.02 101.72,-330.11"/>
<polygon fill="blue" stroke="black" points="103.75,-327.26 93.64,-324.1 99.58,-332.88 103.75,-327.26"/>
</g>
<!-- flask_json -->
<g id="node12" class="node">
<title>flask_json</title><style>.edge>path:hover{stroke-width:8}</style>
<polygon fill="blue" stroke="black" points="731.05,-324 668.05,-324 668.05,-288 731.05,-288 731.05,-324"/>
<text text-anchor="middle" x="699.55" y="-303.5" font-family="Helvetica,sans-Serif" font-size="10.00" fill="white">flask.json</text>
</g>
<!-- flask_globals&#45;&gt;flask_json -->
<g id="edge29" class="edge">
<title>flask_globals&#45;&gt;flask_json</title><style>.edge>path:hover{stroke-width:8}</style>
<path fill="none" stroke="black" d="M489.64,-465.7C524.76,-459.33 576.25,-445.78 612.55,-417.98 637.02,-399.25 631.59,-384.28 650.55,-360 658.19,-350.22 667.25,-340.08 675.49,-331.32"/>
<polygon fill="blue" stroke="black" points="678.08,-333.67 682.46,-324.02 673.02,-328.83 678.08,-333.67"/>
</g>
<!-- flask_logging -->
<g id="node15" class="node">
<title>flask_logging</title><style>.edge>path:hover{stroke-width:8}</style>
<ellipse fill="#4cb34c" stroke="black" cx="412.55" cy="-388.99" rx="46.51" ry="18"/>
<text text-anchor="middle" x="412.55" y="-386.49" font-family="Helvetica,sans-Serif" font-size="10.00" fill="#000000">flask.logging</text>
</g>
<!-- flask_globals&#45;&gt;flask_logging -->
<g id="edge30" class="edge">
<title>flask_globals&#45;&gt;flask_logging</title><style>.edge>path:hover{stroke-width:8}</style>
<path fill="none" stroke="black" d="M442.49,-453.81C437.37,-442.89 430.64,-428.54 424.86,-416.21"/>
<polygon fill="blue" stroke="black" points="427.89,-414.43 420.47,-406.87 421.55,-417.4 427.89,-414.43"/>
</g>
<!-- flask_globals&#45;&gt;flask_templating -->
<g id="edge31" class="edge">
<title>flask_globals&#45;&gt;flask_templating</title><style>.edge>path:hover{stroke-width:8}</style>
<path fill="none" stroke="black" d="M457.69,-453.62C461.57,-443.42 466.07,-430.17 468.55,-417.98 491.23,-306.63 513.04,-273.74 487.55,-163"/>
<path fill="none" stroke="black" d="M487.55,-161C481.86,-142.27 467.37,-126.35 453.05,-114.45"/>
<polygon fill="blue" stroke="black" points="455.19,-111.68 445.16,-108.25 450.86,-117.18 455.19,-111.68"/>
</g>
<!-- flask_views -->
<g id="node21" class="node">
<title>flask_views</title><style>.edge>path:hover{stroke-width:8}</style>
<ellipse fill="#46a446" stroke="black" cx="875.55" cy="-388.99" rx="41.59" ry="18"/>
<text text-anchor="middle" x="875.55" y="-386.49" font-family="Helvetica,sans-Serif" font-size="10.00" fill="#ffffff">flask.views</text>
</g>
<!-- flask_globals&#45;&gt;flask_views -->
<g id="edge32" class="edge">
<title>flask_globals&#45;&gt;flask_views</title><style>.edge>path:hover{stroke-width:8}</style>
<path fill="none" stroke="black" d="M489.7,-469.47C558.09,-465.92 703.12,-454.4 819.55,-417.98 827.36,-415.54 835.41,-412.12 842.89,-408.5"/>
<polygon fill="blue" stroke="black" points="844.67,-411.52 852.01,-403.87 841.5,-405.28 844.67,-411.52"/>
</g>
<!-- flask_globals&#45;&gt;flask_wrappers -->
<g id="edge33" class="edge">
<title>flask_globals&#45;&gt;flask_wrappers</title><style>.edge>path:hover{stroke-width:8}</style>
<path fill="none" stroke="black" d="M481.87,-447.72C496.43,-436.9 513.7,-424.06 528.25,-413.25"/>
<polygon fill="blue" stroke="black" points="479.61,-445.03 473.67,-453.81 483.78,-450.65 479.61,-445.03"/>
<polygon fill="blue" stroke="black" points="530.53,-415.92 536.47,-407.14 526.36,-410.3 530.53,-415.92"/>
</g>
<!-- flask_helpers&#45;&gt;flask -->
<g id="edge34" class="edge">
<title>flask_helpers&#45;&gt;flask</title><style>.edge>path:hover{stroke-width:8}</style>
<path fill="none" stroke="black" d="M43.69,-287.83C27.19,-275.56 8.56,-257.32 3.55,-235"/>
</g>
<!-- flask_helpers&#45;&gt;flask_app -->
<g id="edge35" class="edge">
<title>flask_helpers&#45;&gt;flask_app</title><style>.edge>path:hover{stroke-width:8}</style>
<path fill="none" stroke="black" d="M109.55,-389.99C150.35,-479.1 165.31,-508.68 247.55,-561.98 301.66,-597.04 377.99,-608.96 419.95,-612.97"/>
</g>
<!-- flask_helpers&#45;&gt;flask_blueprints -->
<g id="edge36" class="edge">
<title>flask_helpers&#45;&gt;flask_blueprints</title><style>.edge>path:hover{stroke-width:8}</style>
<path fill="none" stroke="black" d="M111.15,-291C144.73,-279.13 192.8,-262.14 227.16,-249.99"/>
<polygon fill="blue" stroke="black" points="228.65,-253.17 236.91,-246.54 226.31,-246.57 228.65,-253.17"/>
</g>
<!-- flask_helpers&#45;&gt;flask_cli -->
<g id="edge37" class="edge">
<title>flask_helpers&#45;&gt;flask_cli</title><style>.edge>path:hover{stroke-width:8}</style>
<path fill="none" stroke="black" d="M80.5,-324.04C87.63,-338 97.72,-358.62 105.86,-378.59"/>
<polygon fill="blue" stroke="black" points="102.64,-379.96 109.55,-387.99 109.15,-377.4 102.64,-379.96"/>
<path fill="none" stroke="black" d="M109.55,-389.99C145.75,-492.77 61.68,-552.09 133.55,-633.98 180.2,-687.14 219.83,-653.29 288.55,-669.98 301.73,-673.18 316.33,-676.87 328.53,-679.99"/>
</g>
<!-- flask_helpers&#45;&gt;flask_templating -->
<g id="edge38" class="edge">
<title>flask_helpers&#45;&gt;flask_templating</title><style>.edge>path:hover{stroke-width:8}</style>
<path fill="none" stroke="black" d="M59.22,-287.74C50.72,-274.08 41.02,-254.16 41.55,-235"/>
</g>
<!-- flask_json&#45;&gt;flask -->
<g id="edge40" class="edge">
<title>flask_json&#45;&gt;flask</title><style>.edge>path:hover{stroke-width:8}</style>
<path fill="none" stroke="black" d="M704.51,-287.93C707.84,-272.73 709.95,-250.56 699.55,-235"/>
</g>
<!-- flask_json&#45;&gt;flask_sessions -->
<g id="edge41" class="edge">
<title>flask_json&#45;&gt;flask_sessions</title><style>.edge>path:hover{stroke-width:8}</style>
<path fill="none" stroke="black" d="M731.06,-297.04C778.01,-285.17 866.91,-262.71 923.86,-248.32"/>
<polygon fill="blue" stroke="black" points="924.92,-251.66 933.76,-245.81 923.21,-244.87 924.92,-251.66"/>
</g>
<!-- flask_json_provider -->
<g id="node13" class="node">
<title>flask_json_provider</title><style>.edge>path:hover{stroke-width:8}</style>
<ellipse fill="#47c247" stroke="black" cx="699.55" cy="-388.99" rx="40.11" ry="28.98"/>
<text text-anchor="middle" x="699.55" y="-397.49" font-family="Helvetica,sans-Serif" font-size="10.00" fill="#000000">flask.</text>
<text text-anchor="middle" x="699.55" y="-386.49" font-family="Helvetica,sans-Serif" font-size="10.00" fill="#000000">json.</text>
<text text-anchor="middle" x="699.55" y="-375.49" font-family="Helvetica,sans-Serif" font-size="10.00" fill="#000000">provider</text>
</g>
<!-- flask_json_provider&#45;&gt;flask_json -->
<g id="edge43" class="edge">
<title>flask_json_provider&#45;&gt;flask_json</title><style>.edge>path:hover{stroke-width:8}</style>
<path fill="none" stroke="black" d="M699.55,-359.66C699.55,-351.42 699.55,-342.43 699.55,-334.25"/>
<polygon fill="#47c247" stroke="black" points="703.05,-334.1 699.55,-324.1 696.05,-334.1 703.05,-334.1"/>
</g>
<!-- flask_json_tag -->
<g id="node14" class="node">
<title>flask_json_tag</title><style>.edge>path:hover{stroke-width:8}</style>
<polygon fill="blue" stroke="black" points="1017.55,-406.99 935.55,-406.99 935.55,-370.99 1017.55,-370.99 1017.55,-406.99"/>
<text text-anchor="middle" x="976.55" y="-386.49" font-family="Helvetica,sans-Serif" font-size="10.00" fill="white">flask.json.tag</text>
</g>
<!-- flask_json_tag&#45;&gt;flask_sessions -->
<g id="edge44" class="edge">
<title>flask_json_tag&#45;&gt;flask_sessions</title><style>.edge>path:hover{stroke-width:8}</style>
<path fill="none" stroke="black" d="M976.55,-370.74C976.55,-344.45 976.55,-294.13 976.55,-262.69"/>
<polygon fill="blue" stroke="black" points="980.05,-262.42 976.55,-252.42 973.05,-262.42 980.05,-262.42"/>
</g>
<!-- flask_sessions&#45;&gt;flask_ctx -->
<g id="edge46" class="edge">
<title>flask_sessions&#45;&gt;flask_ctx</title><style>.edge>path:hover{stroke-width:8}</style>
<path fill="none" stroke="black" d="M990.07,-252.19C1015.63,-286.9 1065.13,-366.44 1026.55,-417.98 974.63,-487.36 702.26,-526.24 599.68,-538.61"/>
<polygon fill="blue" stroke="black" points="599.25,-535.13 589.73,-539.79 600.07,-542.09 599.25,-535.13"/>
</g>
<!-- flask_sessions&#45;&gt;flask_globals -->
<g id="edge47" class="edge">
<title>flask_sessions&#45;&gt;flask_globals</title><style>.edge>path:hover{stroke-width:8}</style>
<path fill="none" stroke="black" d="M955.61,-252.27C901.52,-296.83 760.48,-412.57 748.55,-417.98 666.68,-455.15 561.13,-466.31 500.13,-469.62"/>
<polygon fill="blue" stroke="black" points="499.81,-466.14 490,-470.12 500.16,-473.13 499.81,-466.14"/>
</g>
<!-- flask_sessions&#45;&gt;flask_testing -->
<g id="edge48" class="edge">
<title>flask_sessions&#45;&gt;flask_testing</title><style>.edge>path:hover{stroke-width:8}</style>
<path fill="none" stroke="black" d="M1019.21,-222.6C1071.54,-209.83 1160.06,-188.24 1214.96,-174.85"/>
<polygon fill="blue" stroke="black" points="1215.92,-178.22 1224.81,-172.45 1214.26,-171.42 1215.92,-178.22"/>
</g>
<!-- flask_signals -->
<g id="node17" class="node">
<title>flask_signals</title><style>.edge>path:hover{stroke-width:8}</style>
<ellipse fill="#16f316" stroke="black" cx="234.55" cy="-687.98" rx="45.15" ry="18"/>
<text text-anchor="middle" x="234.55" y="-685.48" font-family="Helvetica,sans-Serif" font-size="10.00" fill="#000000">flask.signals</text>
</g>
<!-- flask_signals&#45;&gt;flask -->
<g id="edge49" class="edge">
<title>flask_signals&#45;&gt;flask</title><style>.edge>path:hover{stroke-width:8}</style>
<path fill="none" stroke="black" d="M189.27,-686.19C139.87,-682.71 68.19,-668.77 71.55,-616.98"/>
<path fill="none" stroke="black" d="M71.55,-614.98C78.03,-515.2 90.87,-488.1 71.55,-389.99"/>
<path fill="none" stroke="black" d="M71.55,-387.99C59.73,-342.5 13.54,-352.93 3.55,-307"/>
<path fill="none" stroke="black" d="M3.55,-305C-3.06,-274.6 10.36,-265.36 3.55,-235"/>
<path fill="none" stroke="black" d="M3.55,-233C-36.66,-53.65 300.41,-24.6 415.16,-19.9"/>
<polygon fill="#16f316" stroke="black" points="415.38,-23.4 425.24,-19.53 415.12,-16.4 415.38,-23.4"/>
</g>
<!-- flask_signals&#45;&gt;flask_app -->
<g id="edge50" class="edge">
<title>flask_signals&#45;&gt;flask_app</title><style>.edge>path:hover{stroke-width:8}</style>
<path fill="none" stroke="black" d="M268.78,-675.89C307.24,-663.43 369.62,-643.21 410.37,-630.01"/>
<polygon fill="#16f316" stroke="black" points="411.55,-633.3 419.98,-626.89 409.39,-626.64 411.55,-633.3"/>
</g>
<!-- flask_signals&#45;&gt;flask_ctx -->
<g id="edge51" class="edge">
<title>flask_signals&#45;&gt;flask_ctx</title><style>.edge>path:hover{stroke-width:8}</style>
<path fill="none" stroke="black" d="M71.55,-614.98C74.48,-569.8 405.27,-551.53 521.07,-546.52"/>
<polygon fill="#16f316" stroke="black" points="521.42,-550 531.27,-546.08 521.13,-543.01 521.42,-550"/>
</g>
<!-- flask_signals&#45;&gt;flask_helpers -->
<g id="edge52" class="edge">
<title>flask_signals&#45;&gt;flask_helpers</title><style>.edge>path:hover{stroke-width:8}</style>
<path fill="none" stroke="black" d="M71.55,-387.99C68.09,-370.39 68.08,-350.22 68.94,-334.41"/>
<polygon fill="#16f316" stroke="black" points="72.44,-334.47 69.64,-324.25 65.46,-333.99 72.44,-334.47"/>
</g>
<!-- flask_signals&#45;&gt;flask_templating -->
<g id="edge53" class="edge">
<title>flask_signals&#45;&gt;flask_templating</title><style>.edge>path:hover{stroke-width:8}</style>
<path fill="none" stroke="black" d="M3.55,-305C-3.97,-270.41 40.57,-270.39 41.55,-235"/>
<path fill="none" stroke="black" d="M41.55,-233C43.49,-163.11 272.82,-115.62 372.34,-98.29"/>
<polygon fill="#16f316" stroke="black" points="373.13,-101.71 382.4,-96.57 371.95,-94.81 373.13,-101.71"/>
</g>
<!-- flask_templating&#45;&gt;flask -->
<g id="edge54" class="edge">
<title>flask_templating&#45;&gt;flask</title><style>.edge>path:hover{stroke-width:8}</style>
<path fill="none" stroke="black" d="M426.21,-71.7C430.19,-63.73 435,-54.1 439.42,-45.26"/>
<polygon fill="blue" stroke="black" points="442.66,-46.61 444,-36.1 436.4,-43.48 442.66,-46.61"/>
</g>
<!-- flask_typing -->
<g id="node20" class="node">
<title>flask_typing</title><style>.edge>path:hover{stroke-width:8}</style>
<ellipse fill="#2fdb2f" stroke="black" cx="609.55" cy="-687.98" rx="43.62" ry="18"/>
<text text-anchor="middle" x="609.55" y="-685.48" font-family="Helvetica,sans-Serif" font-size="10.00" fill="#000000">flask.typing</text>
</g>
<!-- flask_typing&#45;&gt;flask_app -->
<g id="edge57" class="edge">
<title>flask_typing&#45;&gt;flask_app</title><style>.edge>path:hover{stroke-width:8}</style>
<path fill="none" stroke="black" d="M580.76,-674.31C555.51,-663.19 518.56,-646.92 490.46,-634.55"/>
<polygon fill="#2fdb2f" stroke="black" points="491.87,-631.35 481.3,-630.52 489.04,-637.75 491.87,-631.35"/>
</g>
<!-- flask_typing&#45;&gt;flask_ctx -->
<g id="edge58" class="edge">
<title>flask_typing&#45;&gt;flask_ctx</title><style>.edge>path:hover{stroke-width:8}</style>
<path fill="none" stroke="black" d="M649.88,-680.78C706.39,-670.94 802.63,-649.46 805.55,-616.98"/>
<path fill="none" stroke="black" d="M805.55,-614.98C809.35,-572.76 670.13,-554.52 599.92,-548.02"/>
<polygon fill="#2fdb2f" stroke="black" points="599.95,-544.51 589.68,-547.11 599.33,-551.49 599.95,-544.51"/>
</g>
<!-- flask_typing&#45;&gt;flask_views -->
<g id="edge59" class="edge">
<title>flask_typing&#45;&gt;flask_views</title><style>.edge>path:hover{stroke-width:8}</style>
<path fill="none" stroke="black" d="M805.55,-614.98C812.27,-540.27 845.28,-457.14 863.47,-416"/>
<polygon fill="#2fdb2f" stroke="black" points="866.74,-417.26 867.65,-406.7 860.36,-414.39 866.74,-417.26"/>
</g>
<!-- flask_wrappers&#45;&gt;flask -->
<g id="edge60" class="edge">
<title>flask_wrappers&#45;&gt;flask</title><style>.edge>path:hover{stroke-width:8}</style>
<path fill="none" stroke="black" d="M572.59,-370.97C587.18,-352.93 612.37,-324.65 639.55,-307"/>
<path fill="none" stroke="black" d="M639.55,-305C648.15,-299.42 705.25,-243.52 699.55,-235"/>
<path fill="none" stroke="black" d="M699.55,-233C636.53,-138.72 487.55,-204.41 487.55,-91"/>
</g>
<!-- flask_wrappers&#45;&gt;flask_app -->
<g id="edge61" class="edge">
<title>flask_wrappers&#45;&gt;flask_app</title><style>.edge>path:hover{stroke-width:8}</style>
<path fill="none" stroke="black" d="M546.6,-407.17C537.3,-420.69 525.44,-440.62 519.76,-461.19"/>
<polygon fill="blue" stroke="black" points="516.33,-460.46 517.55,-470.98 523.16,-461.99 516.33,-460.46"/>
<path fill="none" stroke="black" d="M517.55,-472.98C510.96,-521.6 480.51,-572.05 463.02,-597.72"/>
</g>
<!-- flask_wrappers&#45;&gt;flask_blueprints -->
<g id="edge62" class="edge">
<title>flask_wrappers&#45;&gt;flask_blueprints</title><style>.edge>path:hover{stroke-width:8}</style>
<path fill="none" stroke="black" d="M527.13,-370.89C474.24,-342.98 369.45,-287.7 311.15,-256.95"/>
<polygon fill="blue" stroke="black" points="312.69,-253.8 302.21,-252.23 309.42,-259.99 312.69,-253.8"/>
</g>
<!-- flask_wrappers&#45;&gt;flask_ctx -->
<g id="edge63" class="edge">
<title>flask_wrappers&#45;&gt;flask_ctx</title><style>.edge>path:hover{stroke-width:8}</style>
<path fill="none" stroke="black" d="M517.55,-472.98C514.81,-493.19 528.55,-512.67 541.21,-525.92"/>
</g>
<!-- flask_wrappers&#45;&gt;flask_debughelpers -->
<g id="edge64" class="edge">
<title>flask_wrappers&#45;&gt;flask_debughelpers</title><style>.edge>path:hover{stroke-width:8}</style>
<path fill="none" stroke="black" d="M543.22,-362.11C515.82,-318.7 460.94,-231.74 433.68,-188.55"/>
<polygon fill="blue" stroke="black" points="540.35,-364.12 548.65,-370.71 546.27,-360.39 540.35,-364.12"/>
<polygon fill="blue" stroke="black" points="436.6,-186.62 428.3,-180.03 430.68,-190.36 436.6,-186.62"/>
</g>
<!-- flask_wrappers&#45;&gt;flask_helpers -->
<g id="edge66" class="edge">
<title>flask_wrappers&#45;&gt;flask_helpers</title><style>.edge>path:hover{stroke-width:8}</style>
<path fill="none" stroke="black" d="M505.93,-369.89C493.74,-366.22 480.78,-362.68 468.55,-360 345.13,-332.97 196.91,-317.61 121.27,-310.97"/>
<polygon fill="blue" stroke="black" points="504.92,-373.24 515.51,-372.83 506.98,-366.55 504.92,-373.24"/>
<polygon fill="blue" stroke="black" points="121.36,-307.47 111.09,-310.09 120.75,-314.44 121.36,-307.47"/>
</g>
<!-- flask_wrappers&#45;&gt;flask_json -->
<g id="edge67" class="edge">
<title>flask_wrappers&#45;&gt;flask_json</title><style>.edge>path:hover{stroke-width:8}</style>
<path fill="none" stroke="black" d="M597.95,-365.78C617.63,-354.39 641.52,-340.57 661.2,-329.19"/>
<polygon fill="blue" stroke="black" points="596.15,-362.78 589.24,-370.82 599.65,-368.84 596.15,-362.78"/>
<polygon fill="blue" stroke="black" points="663,-332.19 669.91,-324.15 659.5,-326.13 663,-332.19"/>
</g>
<!-- flask_wrappers&#45;&gt;flask_sessions -->
<g id="edge68" class="edge">
<title>flask_wrappers&#45;&gt;flask_sessions</title><style>.edge>path:hover{stroke-width:8}</style>
<path fill="none" stroke="black" d="M639.55,-305C649.34,-298.65 648.97,-292.92 659.55,-288 746.25,-247.71 858.89,-237.61 923.92,-235.33"/>
<polygon fill="blue" stroke="black" points="924.04,-238.83 933.93,-235.03 923.83,-231.84 924.04,-238.83"/>
</g>
<!-- typing_extensions -->
<g id="node23" class="node">
<title>typing_extensions</title><style>.edge>path:hover{stroke-width:8}</style>
<ellipse fill="#4747c2" stroke="black" cx="1173.55" cy="-388.99" rx="62.3" ry="18"/>
<text text-anchor="middle" x="1173.55" y="-386.49" font-family="Helvetica,sans-Serif" font-size="10.00" fill="#ffffff">typing_extensions</text>
</g>
<!-- typing_extensions&#45;&gt;flask_config -->
<g id="edge69" class="edge">
<title>typing_extensions&#45;&gt;flask_config</title><style>.edge>path:hover{stroke-width:8}</style>
<path fill="none" stroke="black" d="M1121.55,-305C1049.62,-215 931.81,-142.05 873.89,-109.45"/>
<polygon fill="#4747c2" stroke="black" points="875.57,-106.37 865.13,-104.56 872.16,-112.49 875.57,-106.37"/>
</g>
<!-- typing_extensions&#45;&gt;flask_sessions -->
<g id="edge70" class="edge">
<title>typing_extensions&#45;&gt;flask_sessions</title><style>.edge>path:hover{stroke-width:8}</style>
<path fill="none" stroke="black" d="M1164.14,-371.18C1154.39,-354.3 1138.25,-327.88 1121.55,-307"/>
<path fill="none" stroke="black" d="M1121.55,-305C1098.4,-276.04 1060.31,-258.29 1028.98,-247.92"/>
<polygon fill="#4747c2" stroke="black" points="1029.67,-244.47 1019.08,-244.81 1027.57,-251.14 1029.67,-244.47"/>
</g>
</g>
</svg>
